<svg xmlns="http://www.w3.org/2000/svg"
shape-rendering="geometricPrecision"
width="4000" height="4000" viewBox="0 0 574 574">
  <metadata>null</metadata>

<path d="
M 72.892 404.525
C 72.945 404.344 72.998 404.163 73.052 403.982
C 78.588 403.732 84.612 403.299 90.13 403.9
C 90.435 407.196 90.101 410.682 90.095 413.996
C 90.083 419.982 90.193 425.981 90.057 431.965
C 89.992 434.841 89.947 437.711 89.949 440.591
C 89.95 441.79 89.658 443.516 90.154 444.608
C 104.012 444.068 117.954 445.228 131.823 444.729
C 131.366 435.537 131.785 426.207 131.788 417.002
C 131.789 414.169 131.795 411.336 131.78 408.503
C 131.773 407.074 131.481 405.4 131.915 404.032
C 135.33 403.676 138.848 403.849 142.28 403.859
C 144.453 403.865 146.779 403.638 148.929 403.963
C 148.366 424.274 148.875 444.687 148.888 465.009
C 148.893 473.509 148.92 482.01 148.912 490.51
C 148.908 494.947 148.6 499.517 148.926 503.937
C 143.303 503.779 137.552 503.549 131.935 503.918
C 131.593 502.388 131.805 500.569 131.808 499.001
C 131.816 495.835 131.824 492.668 131.823 489.501
C 131.819 480.603 131.329 471.577 131.726 462.697
C 131.165 462.157 129.425 462.418 128.672 462.422
C 126.117 462.435 123.562 462.427 121.007 462.431
C 110.812 462.445 100.334 461.786 90.175 462.7
C 88.991 476.337 90.813 490.225 89.971 503.886
C 84.356 503.662 78.703 503.933 73.082 503.852
C 72.504 499.501 72.83 494.892 72.826 490.5
C 72.82 483 72.814 475.5 72.814 468.001
C 72.814 446.852 72.485 425.669 72.892 404.525 Z"
opacity="1" fill="rgb(21,73,89)" fill-rule="evenodd" />
<path d="
M 72.844 524.023
C 72.933 523.843 73.022 523.663 73.112 523.483
C 75.571 523.322 78.58 522.794 80.943 523.743
C 85.007 525.375 85.221 530.877 82.166 533.578
C 81.195 534.437 79.921 535.067 78.617 535.159
C 77.669 535.225 76.206 534.953 75.375 535.349
C 75.436 537.69 75.38 540.04 75.398 542.382
C 74.634 542.333 73.862 542.334 73.096 542.299
C 72.091 536.554 72.77 529.871 72.844 524.023 Z
M 75.426 526.067
C 75.28 527.897 74.61 531.669 75.711 533.217
C 77.034 533.123 78.982 533.272 80.097 532.404
C 82.108 530.837 82.398 527.425 80.178 525.901
C 78.938 525.051 77.241 525.27 75.851 525.484
C 75.709 525.678 75.567 525.872 75.426 526.067 Z"
opacity="1" fill="rgb(18,68,90)" fill-rule="evenodd" />
<path d="
M 85.396 534.575
C 87.126 529.491 93.454 528.892 96.717 532.895
C 97.595 533.972 97.801 535.575 97.892 536.923
C 97.469 537.405 96.193 536.718 95.489 536.774
C 93.004 536.972 90.501 536.709 88.01 536.935
C 86.482 538.79 90.126 540.308 91.558 540.297
C 93.451 540.284 95.762 537.425 97.346 538.496
C 97.172 541.764 92.345 543.131 89.642 542.441
C 86.05 541.524 84.707 537.932 85.396 534.575 Z
M 87.995 534.07
C 87.652 534.679 87.75 534.346 87.723 535.076
C 89.649 535.302 91.579 535.038 93.51 535.117
C 93.895 535.133 95.122 535.377 95.393 535.093
C 94.551 531.117 90.054 531.341 87.995 534.07 Z"
opacity="1" fill="rgb(14,67,85)" fill-rule="evenodd" />
<path d="
M 107.583 530.21
C 107.692 530.774 107.858 531.345 107.883 531.917
C 106.418 532.22 104.836 532.107 103.658 533.241
C 102.038 534.799 102.723 540.136 103.209 542.18
C 102.297 542.057 101.374 542.055 100.458 541.898
C 100.19 539.32 100.498 536.669 100.392 534.075
C 100.355 533.163 100.072 531.559 100.582 530.721
C 100.992 530.047 101.877 530.081 102.571 530.117
C 102.89 530.816 102.763 531.589 103.173 532.245
C 103.654 532.54 104.328 530.545 104.812 530.113
C 105.766 529.983 106.635 530.231 107.583 530.21 Z"
opacity="1" fill="rgb(15,74,94)" fill-rule="evenodd" />
<path d="
M 107.583 530.21
C 108.283 530.718 108.598 530.942 109.509 530.992
C 109.085 531.262 108.799 531.774 109.055 532.273
C 108.649 532.09 108.326 531.996 107.883 531.917
C 107.858 531.345 107.692 530.774 107.583 530.21 Z"
opacity="1" fill="rgb(120,189,156)" fill-rule="evenodd" />
<path d="
M 109.509 530.992
C 110.716 530.864 110.1 528.949 110.11 527.993
C 110.139 525.039 112.15 520.229 116.068 522.332
C 116.368 523.18 116.323 523.969 116.31 524.858
C 115.401 524.926 114.587 524.537 113.686 524.625
C 112.6 526.279 112.618 528.538 112.825 530.454
C 113.754 530.541 114.561 530.654 115.489 530.473
C 115.594 531.18 115.518 531.725 115.406 532.424
C 114.563 532.442 113.749 532.328 112.909 532.426
C 112.471 533.267 112.631 534.484 112.6 535.437
C 112.526 537.64 112.438 539.977 112.731 542.166
C 111.925 542.15 111.079 542.346 110.296 542.126
C 110.188 539.755 110.245 537.374 110.224 535.001
C 110.212 533.617 110.482 532.711 109.055 532.273
C 108.799 531.774 109.085 531.262 109.509 530.992 Z"
opacity="1" fill="rgb(22,77,90)" fill-rule="evenodd" />
<path d="
M 240.997 111.002
C 243.447 110.702 246.024 110.855 248.492 110.919
C 252.909 112.425 257.546 112.597 261.968 114.432
C 272.565 118.828 281.151 128.04 285.135 138.702
C 286.381 142.038 286.286 145.513 287.222 148.864
C 287.498 149.096 287.646 147.014 287.673 146.73
C 287.832 145.07 288.143 143.446 288.517 141.82
C 289.586 137.174 291.775 132.762 294.509 128.881
C 299.881 121.256 307.682 115.731 316.539 112.848
C 318.413 112.237 320.345 111.849 322.274 111.462
C 323.252 111.266 324.456 111.406 325.366 110.998
C 325.645 110.873 324.752 110.963 324.456 110.886
C 323.646 110.675 322.926 110.43 322.091 110.333
C 320.081 110.099 318.176 109.655 316.257 109.024
C 310.504 107.134 304.842 103.91 300.437 99.721
C 295.385 94.918 291.558 88.859 289.177 82.329
C 288.432 80.287 287.99 78.18 287.756 76.019
C 287.678 75.3 287.655 72.231 286.917 72.888
C 287.153 70.933 286.963 69.02 287.068 67.053
C 288.038 64.09 287.894 60.816 288.738 57.765
C 290.511 51.362 294.052 45.344 298.599 40.532
C 303.398 35.452 309.013 31.799 315.507 29.261
C 338.037 20.456 364.929 34.608 371.226 57.669
C 376.182 75.815 367.834 95.052 352.076 104.858
C 346.95 108.047 340.498 110.405 334.503 111.014
C 335.768 111.663 337.863 111.453 339.275 111.776
C 342.659 112.55 345.872 113.577 349 115.097
C 362.22 121.519 370.485 134.472 371.916 148.804
C 371.968 149.36 372.253 146.585 372.333 145.977
C 372.631 143.686 373.108 141.391 373.858 139.201
C 376.076 132.719 379.832 126.874 384.868 122.196
C 399.3 108.79 420.159 106.603 436.984 116.794
C 441.541 119.554 445.615 123.082 448.76 127.399
C 453.453 133.841 456.477 141.21 457.201 149.178
C 458.632 164.911 450.645 181.003 437.153 189.245
C 432.043 192.367 426.749 193.667 420.98 194.903
C 420.402 195.027 420.013 195.438 419.427 195.506
C 416.467 195.276 413.48 195.338 410.515 195.408
C 408.151 195.437 405.736 194.673 403.447 194.132
C 393.318 191.739 384.152 185.368 378.392 176.69
C 376.016 173.11 374.135 169.347 373.074 165.174
C 372.676 163.608 372.408 162.176 372.225 160.569
C 372.187 160.234 372.004 159.183 371.885 159.105
C 371.671 158.966 371.784 159.607 371.733 159.857
C 370.986 162.903 370.673 165.854 369.51 168.828
C 365.636 178.733 357.814 186.667 348.319 191.312
C 345.352 192.763 342.159 193.795 338.966 194.614
C 337.443 195.004 335.896 194.775 334.528 195.671
C 332.208 195.351 329.853 195.406 327.515 195.406
C 314.648 195.319 301.719 187.532 294.427 177.202
C 291.855 173.559 290.015 169.443 288.785 165.171
C 288.306 163.507 288.098 161.843 287.699 160.177
C 287.571 159.644 287.78 158.827 287.288 158.584
C 286.905 158.395 287.103 159.419 287.011 159.837
C 286.314 163.017 285.785 166.192 284.542 169.235
C 281.101 177.664 275.012 184.541 267.256 189.293
C 263.683 191.482 259.743 193.274 255.667 194.287
C 254.358 194.613 252.975 194.657 251.683 195.006
C 250.992 195.193 251.073 195.253 250.402 195.469
C 250.138 195.554 249.318 195.514 249.58 195.606
C 251.07 196.126 252.988 196.013 254.56 196.353
C 256.846 196.848 259.244 197.662 261.394 198.583
C 271.919 203.092 280.423 211.283 284.69 222.003
C 285.902 225.047 287.405 229.231 287.243 232.525
C 287.323 235.648 287.039 238.822 287.316 241.935
C 287.478 243.168 286.833 244.45 286.587 245.639
C 285.682 250.003 284.237 254.172 281.954 258.016
C 275.9 268.207 265.492 275.966 253.858 278.467
C 246.556 280.036 239.352 279.478 232.119 278.002
C 231.26 277.366 229.842 277.179 228.84 276.815
C 227.071 276.171 225.335 275.375 223.688 274.463
C 217.451 271.011 211.99 265.873 208.14 259.865
C 206.041 256.589 204.495 252.968 203.465 249.227
C 203.066 247.778 202.888 246.404 202.651 244.929
C 202.593 244.565 202.413 243.64 202.227 243.574
C 201.958 243.479 202.067 244.122 201.986 244.397
C 201.295 247.395 200.717 250.361 199.552 253.236
C 194.977 264.525 185.511 273.27 173.991 277.132
C 171.611 277.93 169.13 278.349 166.703 278.988
C 165.557 279.289 164.682 279.883 163.472 279.757
C 161.502 279.517 159.491 279.579 157.51 279.562
C 154.297 279.553 151.216 278.84 148.091 278.034
C 122.921 271.539 110.238 241.998 121.025 218.922
C 125.895 208.504 134.942 201.384 145.553 197.425
C 148.504 196.324 151.654 196.248 154.611 195.348
C 153.925 194.626 151.5 194.774 150.526 194.609
C 147.511 194.097 144.481 192.952 141.732 191.645
C 132.327 187.171 124.548 179.598 120.408 169.958
C 117.758 163.788 116.752 157.26 117.086 150.578
C 118.062 131.067 133.16 114.146 152.409 110.769
C 175.593 106.702 201.239 123.872 202.026 148.454
C 202.322 148.617 202.405 147.525 202.439 147.375
C 204.366 132.448 213.547 120.391 227.409 114.295
C 230.044 113.136 232.835 112.24 235.698 111.87
C 237.222 111.673 239.759 111.952 240.997 111.002 Z
M 164.862 195.557
C 168.24 196.415 171.655 196.662 175.002 197.873
C 185.522 201.678 194.932 209.609 199.313 220.06
C 200.273 222.35 201.097 224.765 201.516 227.221
C 201.804 228.903 201.696 230.653 202.097 232.314
C 202.409 232.485 202.591 230.026 202.631 229.698
C 202.847 227.889 203.042 226.1 203.552 224.343
C 205.057 219.151 207.687 214.271 211.192 210.143
C 216.16 204.292 222.846 200.106 230.067 197.623
C 232.414 196.816 235.024 196.228 237.478 195.865
C 238.028 195.784 240.057 195.868 240.35 195.424
C 239.233 194.887 237.741 194.931 236.521 194.727
C 234.357 194.365 232.214 193.837 230.117 193.196
C 222.455 190.854 215.414 185.352 210.472 179.154
C 207.542 175.479 204.962 171.137 203.672 166.592
C 203.173 164.835 202.858 163.06 202.656 161.246
C 202.615 160.875 202.579 159.47 202.082 159.593
C 200.985 163.332 200.667 167.082 199.047 170.722
C 194.639 180.627 186.331 188.577 176.254 192.556
C 172.59 194.003 168.653 194.637 164.862 195.557 Z"
opacity="1" fill="rgb(236,111,54)" fill-rule="evenodd" />
<path d="
M 116.809 534.523
C 117.775 532.496 119.04 530.944 121.287 530.287
C 125.536 529.044 129.534 532.619 129.207 536.874
C 125.827 537.106 122.326 536.472 118.969 537.066
C 118.899 537.933 119.681 538.681 120.282 539.23
C 121.287 540.148 122.842 540.917 124.248 540.463
C 125.878 539.936 127.15 537.937 128.988 538.968
C 126.06 546.128 115.271 541.71 116.809 534.523 Z
M 119.336 534.576
C 119.288 534.734 119.24 534.892 119.192 535.05
C 119.711 535.584 120.738 535.381 121.461 535.349
C 123.17 535.274 125.128 535.538 126.8 535.188
C 127.317 533.983 124.474 532.073 123.546 531.905
C 121.517 531.535 120.335 533.11 119.336 534.576 Z"
opacity="1" fill="rgb(17,71,90)" fill-rule="evenodd" />
<path d="
M 157.51 279.562
C 159.491 279.579 161.502 279.517 163.472 279.757
C 164.673 280.378 166.274 280.145 167.581 280.37
C 170.577 280.886 173.566 281.717 176.353 282.933
C 189.564 288.694 197.689 299.845 201.118 313.564
C 201.536 317.731 201.837 321.769 201.632 325.964
C 201.529 326.793 201.44 327.624 201.352 328.456
C 200.577 333.959 198.581 339.175 195.794 343.954
C 193.263 348.295 189.794 352.453 185.755 355.468
C 180.136 359.662 173.807 362.758 166.861 363.985
C 143.828 368.055 121.474 352.245 117.644 329.209
C 116.642 323.184 116.849 316.998 118.431 311.093
C 120.192 304.522 123.473 298.706 128.009 293.647
C 134.057 286.902 141.427 282.988 150.043 280.507
C 152.353 279.842 155.38 280.507 157.51 279.562 Z"
opacity="1" fill="rgb(21,74,89)" fill-rule="evenodd" />
<path d="
M 131.449 535.074
C 133.243 530.872 137.002 529.186 141.386 530.812
C 141.688 531.742 142.18 532.732 141.785 533.707
C 140.14 533.947 138.889 531.965 136.864 532.364
C 133.302 533.065 132.489 538.53 135.819 540.087
C 136.776 540.534 138.073 540.723 139.079 540.335
C 139.87 540.031 141.041 539.198 141.891 539.358
C 142.05 542.63 138.256 543.254 135.641 542.506
C 132.499 541.607 130.673 538.159 131.449 535.074 Z"
opacity="1" fill="rgb(16,69,93)" fill-rule="evenodd" />
<path d="
M 143.376 530.812
C 144.084 530.643 144.786 530.607 145.514 530.6
C 145.812 529.592 145.34 527.847 145.407 526.721
C 146.141 526.394 147.027 526.304 147.814 526.547
C 147.948 527.92 147.922 529.286 147.761 530.652
C 148.72 530.622 149.691 530.72 150.648 530.782
C 150.897 531.267 150.977 532.005 150.668 532.481
C 149.753 532.74 148.852 532.491 147.942 532.862
C 147.904 535.259 147.843 537.67 147.957 540.067
C 147.974 540.427 148.398 542.374 148.077 542.421
C 147.268 542.364 146.454 542.392 145.667 542.18
C 145.329 539.166 145.382 535.82 145.538 532.798
C 144.659 532.532 143.858 532.446 143.242 531.724
C 143.286 531.42 143.331 531.116 143.376 530.812 Z"
opacity="1" fill="rgb(23,76,99)" fill-rule="evenodd" />
<path d="
M 159.988 533.108
C 160.057 532.174 160.081 531.255 160.336 530.35
C 161.729 530.274 161.602 530.839 162.105 531.972
C 163.077 531.621 163.583 530.835 164.45 530.346
C 166.026 529.458 167.994 531.131 168.619 532.493
C 169.837 532.39 170.6 530.426 172.18 530.275
C 178.13 529.707 177.255 538.538 177.318 542.283
C 176.48 542.238 175.618 542.378 174.8 542.132
C 174.729 539.117 175.912 534.089 173.054 532.182
C 168.266 531.745 169.832 539.382 169.813 542.332
C 169.031 542.292 168.007 542.557 167.529 541.884
C 167.124 539.141 168.905 533.148 165.448 532.045
C 161.067 533.419 162.311 538.652 162.272 542.35
C 161.589 542.49 160.789 542.372 160.099 542.332
C 159.58 539.412 159.704 536.057 159.988 533.108 Z"
opacity="1" fill="rgb(11,62,91)" fill-rule="evenodd" />
<path d="
M 162.981 450.605
C 163.475 443.328 165.564 436.132 169.019 429.708
C 180.324 408.685 205.486 398.142 228.443 404.547
C 233.186 405.87 237.552 408.14 241.699 410.753
C 246.32 413.666 250.564 417.287 253.987 421.56
C 257.816 426.342 260.856 431.613 262.826 437.425
C 264.962 443.727 265.719 450.567 265.248 457.191
C 264.735 464.395 262.778 471.595 259.288 477.933
C 256.181 483.576 252.135 488.653 247.212 492.807
C 225.438 511.184 192.795 507.642 174.598 486.083
C 170.635 481.388 167.521 475.937 165.52 470.125
C 163.398 463.958 162.54 457.116 162.981 450.605 Z
M 180.468 452.127
C 180.197 456.297 180.73 460.686 182.052 464.649
C 183.227 468.171 184.994 471.295 187.256 474.222
C 201.541 492.71 231.615 490.907 243.233 470.467
C 245.914 465.752 247.25 460.375 247.56 454.982
C 247.785 451.056 247.201 446.98 245.915 443.266
C 238.611 422.186 212.051 413.9 194.029 427.079
C 190.057 429.983 186.921 433.802 184.554 438.087
C 182.148 442.442 180.79 447.165 180.468 452.127 Z"
opacity="1" fill="rgb(22,73,89)" fill-rule="evenodd" />
<path d="
M 179.964 535.107
C 180.859 531.962 183.968 528.951 187.557 530.409
C 188.365 530.737 189.387 532.476 190.127 532.497
C 190.529 531.445 190.696 529.333 192.396 530.564
C 192.642 533.008 192.607 535.576 192.654 538.043
C 192.679 539.326 192.928 540.86 192.565 542.102
C 191.911 542.367 191.143 542.302 190.445 542.376
C 190.231 541.791 190.42 541.202 190.083 540.632
C 188.82 541.288 187.942 542.533 186.456 542.772
C 181.731 543.534 179.467 539.119 179.964 535.107 Z
M 182.364 535.032
C 180.804 539.956 187.541 543.265 189.722 538.31
C 191.843 533.495 184.119 529.495 182.364 535.032 Z"
opacity="1" fill="rgb(19,68,92)" fill-rule="evenodd" />
<path d="
M 194.409 531.649
C 194.648 531.07 194.58 530.904 195.234 530.666
C 195.591 530.537 196.778 530.91 196.837 530.451
C 196.805 529.161 196.423 528.039 196.488 526.704
C 197.388 526.403 198.237 526.451 199.178 526.501
C 199.249 527.814 199.201 529.124 199.27 530.436
C 200.065 530.547 200.817 530.651 201.623 530.676
C 201.828 531.195 202.034 531.785 201.655 532.262
C 200.945 532.418 200.256 532.521 199.534 532.619
C 199.056 533.366 199.272 534.476 199.266 535.361
C 199.25 537.629 199.593 540.021 199.321 542.272
C 198.586 542.22 197.834 542.228 197.095 542.205
C 196.479 539.16 197.288 535.842 196.928 532.749
C 196.141 532.548 195.35 532.373 194.58 532.11
C 194.523 531.956 194.466 531.802 194.409 531.649 Z"
opacity="1" fill="rgb(21,74,90)" fill-rule="evenodd" />
<path d="
M 287.068 67.053
C 286.963 69.02 287.153 70.933 286.917 72.888
C 284.825 88.034 275.977 100.86 261.932 107.306
C 257.964 109.128 252.911 111.013 248.492 110.919
C 246.024 110.855 243.447 110.702 240.997 111.002
C 235.823 110.822 230.756 109.201 226.057 107.148
C 221.31 105.074 216.985 101.936 213.385 98.226
C 209.814 94.546 206.832 90.165 204.827 85.441
C 196.529 65.881 204.681 42.78 222.944 32.185
C 228.274 29.093 234.393 27.411 240.504 26.869
C 247.302 26.267 254.283 27.328 260.622 29.83
C 267.463 32.531 273.598 37.242 278.144 42.993
C 283.785 50.131 286.146 58.143 287.068 67.053 Z"
opacity="1" fill="rgb(22,74,90)" fill-rule="evenodd" />
<path d="
M 203.402 534.047
C 204.586 531.474 207.143 529.826 210.033 530.208
C 211.151 530.356 212.844 530.863 213.429 531.945
C 213.632 532.323 213.955 533.151 213.455 533.355
C 211.49 533.42 210.127 531.403 207.968 532.425
C 204.673 533.985 204.703 539.325 208.296 540.462
C 210.613 541.195 211.959 539.147 213.981 539.322
C 213.057 542.99 208.901 543.636 205.924 541.642
C 203.316 539.894 202.621 536.99 203.402 534.047 Z"
opacity="1" fill="rgb(16,68,83)" fill-rule="evenodd" />
<path d="
M 216.074 523.616
C 216.928 523.513 217.625 523.482 218.435 523.785
C 218.294 526.581 218.705 529.336 218.337 532.127
C 218.323 532.804 220.108 531.089 220.487 530.843
C 221.776 530.005 224.179 530.197 225.389 531.128
C 227.828 533.008 226.823 537.188 226.966 539.854
C 227.004 540.562 226.836 541.625 227.182 542.261
C 226.375 542.138 225.463 542.185 224.647 542.205
C 224.235 541.563 224.572 540.298 224.563 539.543
C 224.529 536.809 224.999 533.862 222.478 532.222
C 221.01 532.189 219.749 533.169 218.813 534.214
C 218.069 536.231 218.31 539.976 218.585 542.1
C 217.824 542.255 217.051 542.154 216.287 542.189
C 215.92 540.21 216.199 538.003 216.209 535.993
C 216.229 531.888 216.365 527.709 216.074 523.616 Z"
opacity="1" fill="rgb(21,77,83)" fill-rule="evenodd" />
<path d="
M 237.501 532.616
C 237.591 531.918 237.615 531.403 237.947 530.766
C 238.188 530.674 239.561 530.059 239.786 530.413
C 239.948 530.666 239.953 531.402 240.416 531.421
C 241.685 531.471 242.63 529.896 244.09 530.233
C 244.371 530.989 244.46 531.711 244.488 532.519
C 243.134 532.604 241.807 532.617 240.545 533.152
C 239.178 535.267 239.694 539.884 239.887 542.334
C 239.143 542.287 238.391 542.281 237.645 542.25
C 237.289 541.47 237.574 540.333 237.585 539.485
C 237.616 537.203 237.426 534.884 237.501 532.616 Z"
opacity="1" fill="rgb(21,79,86)" fill-rule="evenodd" />
<path d="
M 246.434 525.976
C 246.481 525.817 246.528 525.658 246.575 525.499
C 247.336 525.103 248.238 524.993 249.037 525.338
C 249.217 526.155 249.727 527.495 248.916 528.066
C 248.177 528.229 247.495 528.233 246.761 528.046
C 246.478 527.341 246.419 526.737 246.434 525.976 Z"
opacity="1" fill="rgb(15,68,67)" fill-rule="evenodd" />
<path d="
M 246.943 530.884
C 247.491 530.375 248.492 530.645 249.206 530.703
C 249.668 534.444 249.244 538.602 249.32 542.392
C 248.554 542.458 247.768 542.356 247 542.333
C 246.57 541.369 246.882 539.803 246.884 538.754
C 246.888 536.15 246.727 533.478 246.943 530.884 Z"
opacity="1" fill="rgb(15,67,79)" fill-rule="evenodd" />
<path d="
M 251.92 535.6
C 252.651 532.612 255.043 529.412 258.547 530.428
C 259.24 530.629 261.139 532.63 261.62 532.374
C 262.364 530.852 261.906 530.173 264.029 530.486
C 264.574 531.734 264.114 533.644 264.139 534.999
C 264.21 538.76 265.464 544.763 261.741 547.115
C 259.14 548.758 252.481 547.924 253.162 543.791
C 253.853 543.031 255.287 542.688 256.172 543.25
C 256.421 543.87 256.282 544.616 256.477 545.282
C 257.902 546.761 260.33 545.931 261.41 544.467
C 261.583 543.977 262.374 541.029 261.713 540.824
C 257.212 543.722 251.484 541.335 251.92 535.6 Z
M 254.403 535.053
C 254.172 536.008 254.009 537.494 254.587 538.37
C 256.067 540.614 260.33 541.306 261.612 538.468
C 261.829 537.371 262.035 535.935 261.537 534.889
C 259.887 531.423 255.933 532.021 254.403 535.053 Z"
opacity="1" fill="rgb(15,67,81)" fill-rule="evenodd" />
<path d="
M 267.428 524.606
C 267.554 523.963 267.519 524.335 267.456 523.484
C 268.135 523.366 269.193 523.116 269.778 523.53
C 269.886 526.234 269.779 528.954 269.794 531.659
C 270.07 532.407 271.542 530.642 272.023 530.388
C 273.184 529.778 274.561 530.131 275.573 530.85
C 278.828 533.166 277.393 538.637 277.395 542.02
C 277.207 542.416 275.67 542.117 275.245 542.131
C 275.095 539.526 276.975 532.676 273.103 532.095
C 271.87 532.312 270.631 533.039 269.811 533.979
C 269.549 536.679 269.957 539.44 269.742 542.148
C 269.058 542.223 268.06 542.447 267.411 542.169
C 267.031 539.349 267.362 536.341 267.378 533.499
C 267.395 530.559 267.134 527.533 267.428 524.606 Z"
opacity="1" fill="rgb(24,73,82)" fill-rule="evenodd" />
<path d="
M 274.971 500.607
C 275.869 495.554 276.188 490.247 276.667 485.135
C 277.477 476.485 278.482 467.846 279.425 459.208
C 281.434 440.821 283.933 422.416 285.432 403.982
C 288.18 403.521 291.218 403.809 294.003 403.819
C 296.263 403.828 298.725 403.569 300.946 404.013
C 304.327 411.811 308.577 419.255 311.833 427.115
C 315.918 436.975 320.648 446.759 325.285 456.377
C 327.258 460.468 329.139 464.614 331.046 468.738
C 331.562 469.854 332.043 471.002 332.455 472.159
C 332.528 472.365 332.636 473.034 332.861 473.095
C 335.699 467.944 338 462.392 340.46 457.046
C 345.571 445.942 350.906 434.933 355.98 423.813
C 358.128 419.105 360.273 414.388 362.525 409.728
C 363.379 407.961 364.086 405.249 365.642 404.018
C 370.529 403.5 375.6 403.879 380.51 403.851
C 382.139 424.939 384.99 445.989 387.118 467.036
C 388.352 479.234 389.181 491.62 390.861 503.753
C 385.329 503.496 379.761 503.992 374.223 503.654
C 373.603 502.163 373.686 500.253 373.521 498.66
C 373.208 495.647 372.833 492.641 372.538 489.626
C 371.661 480.635 370.724 471.581 369.492 462.632
C 368.883 458.211 368.329 453.785 367.721 449.364
C 367.512 447.846 367.368 446.325 367.208 444.801
C 367.147 444.223 367.245 443.322 366.736 442.925
C 366.557 442.785 366.585 443.354 366.509 443.568
C 365.166 446.743 363.264 449.758 361.805 452.903
C 356.266 464.843 350.261 476.572 344.749 488.524
C 342.957 492.408 341.148 496.291 339.324 500.161
C 338.874 501.116 338.256 503.477 337.218 503.881
C 335.143 503.931 333.069 503.806 330.994 503.776
C 330.178 503.764 329.14 503.984 328.405 503.575
C 320.47 488.292 313.723 472.339 306.057 456.908
C 304.5 453.775 302.962 450.614 301.505 447.434
C 300.926 446.17 300.372 444.906 299.781 443.648
C 299.587 443.235 299.596 442.208 299.189 442.414
C 298.993 442.514 298.754 445.613 298.676 446.177
C 298.155 449.918 297.695 453.685 297.297 457.44
C 295.664 472.863 292.875 488.278 291.789 503.737
C 287.868 503.915 283.924 503.783 280 503.798
C 278.342 503.804 276.256 504.212 274.658 503.756
C 274.739 502.7 274.838 501.658 274.971 500.607 Z"
opacity="1" fill="rgb(23,74,90)" fill-rule="evenodd" />
<path d="
M 279.985 531.652
C 280.044 530.995 280.025 531.375 280.011 530.511
C 280.726 530.299 281.49 530.265 282.235 530.282
C 282.353 528.986 282.198 527.55 282.185 526.24
C 283.006 526.201 284.081 526.024 284.676 526.673
C 284.772 527.876 284.745 529.027 284.633 530.228
C 285.473 530.443 286.299 530.508 287.166 530.569
C 287.372 531.078 287.609 531.941 287.243 532.439
C 286.487 532.547 285.725 532.678 284.976 532.823
C 283.439 535.272 285.763 539.558 284.819 542.141
C 283.955 542.174 283.122 542.156 282.264 542.124
C 282.142 539.119 282.833 535.673 282.245 532.736
C 281.589 532.656 280.973 532.475 280.331 532.325
C 279.972 531.966 280.097 532.185 279.985 531.652 Z"
opacity="1" fill="rgb(33,81,96)" fill-rule="evenodd" />
<path d="
M 287.243 232.525
C 288.174 229.465 287.924 226.162 289.095 223.118
C 293.465 211.758 302.301 202.414 313.798 198.148
C 316.524 197.136 319.665 196.27 322.563 195.943
C 324.166 195.762 325.966 195.879 327.515 195.406
C 329.853 195.406 332.208 195.351 334.528 195.671
C 348.744 197.437 361.869 205.233 368.052 218.598
C 369.34 221.381 370.41 224.382 371.029 227.389
C 371.417 229.274 371.409 231.235 371.88 233.091
C 372.463 231.566 372.19 229.715 372.536 228.11
C 373.25 224.798 374.214 221.536 375.629 218.45
C 380.241 208.387 389.476 201.091 399.868 197.61
C 401.886 196.934 404.112 196.298 406.221 195.989
C 407.61 195.785 409.184 195.863 410.515 195.408
C 413.48 195.338 416.467 195.276 419.427 195.506
C 421.17 196.172 423.175 196.028 424.981 196.521
C 430.738 198.092 436.155 200.253 440.94 203.906
C 445.748 207.576 450.016 212.217 452.833 217.598
C 460.816 232.85 458.228 251.71 447.211 264.732
C 442.632 270.142 436.322 274.631 429.607 276.922
C 427.215 277.739 424.7 278.322 422.232 278.861
C 421.164 279.094 420.013 279.146 418.967 279.432
C 418.752 279.491 418.347 279.594 418.412 279.808
C 418.514 280.145 420.312 280.069 420.551 280.091
C 422.515 280.27 424.38 280.542 426.279 281.087
C 431.403 282.56 436.172 284.895 440.437 288.102
C 456.709 300.334 461.381 322.026 453.156 340.312
C 451.427 344.158 448.645 347.826 445.834 350.946
C 431.422 366.936 406.85 368.661 389.506 356.613
C 382.943 352.054 377.59 345.366 374.732 337.901
C 373.8 335.466 373.085 333.006 372.7 330.422
C 372.57 329.546 372.969 326.924 372.282 326.311
C 372.16 326.201 372.201 326.629 372.161 326.788
C 371.033 330.772 370.582 334.819 368.974 338.706
C 366.307 345.155 362.012 350.724 356.65 355.168
C 336.718 371.687 305.768 365.205 292.895 343.304
C 283.216 326.835 286.405 305.633 299.658 292.146
C 304.218 287.505 310.213 283.355 316.539 281.541
C 318.803 280.892 321.087 280.389 323.426 280.101
C 324.434 279.977 325.925 280.233 326.84 279.804
C 327.103 279.681 326.316 279.531 326.03 279.479
C 311.386 278.139 297.749 269.393 291.285 256.011
C 290.024 253.399 288.843 250.65 288.259 247.797
C 287.898 246.038 288.082 243.518 287.316 241.935
C 287.039 238.822 287.323 235.648 287.243 232.525 Z
M 333.045 279.667
C 333.027 280.162 334.32 280.05 334.657 280.073
C 336.401 280.191 338.183 280.381 339.883 280.798
C 344.454 281.918 348.856 283.659 352.852 286.175
C 362.142 292.025 368.716 301.616 371.344 312.24
C 371.818 314.155 371.83 316.172 372.117 318.119
C 372.161 318.225 372.55 316.23 372.552 315.859
C 372.557 314.208 372.916 312.566 373.179 310.941
C 373.901 306.489 376.389 301.698 379.017 298.082
C 384.393 290.681 391.943 284.175 400.867 281.561
C 403.215 280.874 405.527 280.344 407.959 280.038
C 409.02 279.905 410.399 280.145 411.399 279.792
C 411.555 279.737 410.723 279.639 410.664 279.634
C 409.947 279.578 409.244 279.385 408.527 279.311
C 406.365 279.089 404.25 278.705 402.157 278.11
C 396.061 276.376 390.085 273.032 385.438 268.718
C 380.435 264.072 376.622 258.57 374.135 252.207
C 373.339 250.171 372.609 247.823 372.362 245.645
C 372.302 245.115 372.134 242.05 371.762 242.84
C 370.922 247.466 369.994 251.892 368.012 256.209
C 363.81 265.362 355.838 272.403 346.671 276.316
C 342.25 278.203 337.687 278.732 333.045 279.667 Z"
opacity="1" fill="rgb(21,73,90)" fill-rule="evenodd" />
<path d="
M 295.964 536.106
C 296.574 532.711 299.201 529.379 303.099 530.346
C 303.979 530.564 305.487 532.518 306.134 532.393
C 306.684 531.409 306.657 529.788 308.293 530.79
C 308.454 533.507 308.424 536.267 308.405 538.992
C 308.398 540.055 308.624 541.285 308.339 542.313
C 307.602 542.395 307.095 542.431 306.368 542.237
C 306.26 541.671 306.084 541.21 306.073 540.628
C 304.767 541.117 303.926 542.397 302.443 542.635
C 298.517 543.266 295.742 539.82 295.964 536.106 Z
M 298.474 535.595
C 298.396 537.112 298.643 538.814 299.821 539.9
C 301.522 541.468 304.996 540.567 305.939 538.504
C 306.156 536.805 306.185 535.104 305.035 533.71
C 302.737 530.922 299.281 532.43 298.474 535.595 Z"
opacity="1" fill="rgb(16,66,92)" fill-rule="evenodd" />
<path d="
M 311.876 530.402
C 313.061 530.445 313.276 530.677 313.709 531.728
C 314.391 532.288 315.696 530.515 316.454 530.289
C 317.162 530.256 317.772 530.299 318.413 530.614
C 318.837 532.904 315.377 532.693 314.158 534.334
C 313.964 536.763 314.501 539.961 313.897 542.262
C 313.169 542.235 312.459 542.212 311.734 542.155
C 311.496 539.759 311.694 537.358 311.652 534.954
C 311.626 533.479 311.364 531.803 311.876 530.402 Z"
opacity="1" fill="rgb(18,75,97)" fill-rule="evenodd" />
<path d="
M 319.492 535.104
C 321.025 527.078 333.655 530.091 332.226 537.883
C 331.527 541.695 326.322 543.569 323.036 542.179
C 320.426 541.074 318.974 537.821 319.492 535.104 Z
M 321.932 535.586
C 321.02 540.578 328.527 542.635 329.676 537.67
C 330.877 532.475 322.958 529.97 321.932 535.586 Z"
opacity="1" fill="rgb(11,68,91)" fill-rule="evenodd" />
<path d="
M 334.689 530.75
C 335.416 530.586 336.561 530.262 337.237 530.687
C 337.239 533.095 336.567 536.775 337.603 538.972
C 338.635 541.159 341.527 540.977 342.984 539.33
C 343.679 536.684 343.26 533.342 343.115 530.629
C 343.934 530.584 344.747 530.459 345.445 530.949
C 345.164 534.027 346.09 537.668 345.044 540.619
C 342.175 543.767 337.178 543.306 335.358 539.376
C 334.245 536.974 334.671 533.342 334.689 530.75 Z"
opacity="1" fill="rgb(13,66,89)" fill-rule="evenodd" />
<path d="
M 348.941 531.595
C 349.202 530.497 349.479 529.944 350.746 530.4
C 350.859 530.767 351.009 531.515 351.223 531.819
C 351.52 532.242 353.356 530.626 353.629 530.486
C 354.788 529.891 356.489 530.3 357.529 530.984
C 359.892 532.539 359.083 536.287 359.215 538.678
C 359.281 539.874 359.436 541.099 359.395 542.296
C 358.657 542.252 357.918 542.257 357.176 542.204
C 356.743 541.543 357.054 540.321 357.068 539.539
C 357.104 537.448 357.456 534.96 356.631 532.978
C 355.049 531.492 352.67 532.22 351.614 534.036
C 351.205 534.738 351.296 535.683 351.293 536.464
C 351.286 538.341 351.034 540.493 351.359 542.335
C 350.579 542.281 349.576 542.493 348.878 542.087
C 348.66 538.723 348.606 534.949 348.941 531.595 Z"
opacity="1" fill="rgb(12,66,89)" fill-rule="evenodd" />
<path d="
M 361.959 536.111
C 362.537 532.279 364.779 529.392 369.079 530.372
C 369.769 530.53 372.034 532.467 372.204 532.379
C 372.632 529.917 372.315 526.986 372.248 524.478
C 372.718 523.815 374.082 523.804 374.822 524.081
C 374.57 530.048 374.331 536.399 374.784 542.351
C 374.039 542.559 373.198 542.382 372.43 542.514
C 372.389 542.297 372.249 541.076 372.013 541.006
C 371.589 540.88 369.612 542.556 368.936 542.68
C 364.772 543.442 361.679 540.172 361.959 536.111 Z
M 364.437 535.081
C 364.086 536.853 364.345 538.877 365.869 540.036
C 367.846 541.538 371.468 540.282 371.995 537.848
C 372.406 535.949 371.938 534.246 370.344 533.08
C 368.178 531.495 364.995 532.261 364.437 535.081 Z"
opacity="1" fill="rgb(29,71,92)" fill-rule="evenodd" />
<path d="
M 383.689 530.679
C 384.566 530.527 385.515 530.601 386.368 530.376
C 386.487 528.896 386.16 527.441 386.451 525.947
C 387.046 525.853 387.843 525.676 388.378 525.983
C 388.587 527.429 388.665 528.842 388.67 530.304
C 389.448 530.39 390.174 530.437 390.96 530.418
C 391.361 531.063 391.506 531.389 391.365 532.108
C 390.541 532.39 389.655 532.434 388.8 532.571
C 388.322 535.667 388.826 539.163 388.867 542.295
C 388.083 542.26 387.27 542.299 386.486 542.342
C 386.128 541.449 386.345 540.131 386.347 539.173
C 386.352 536.999 386.416 534.819 386.337 532.645
C 384.974 531.584 383.62 533.18 383.689 530.679 Z"
opacity="1" fill="rgb(24,64,92)" fill-rule="evenodd" />
<path d="
M 393.431 523.807
C 393.986 523.524 395.365 523.539 395.901 523.914
C 395.779 526.528 395.608 529.417 395.872 532.016
C 397.189 531.535 397.99 530.2 399.488 530.122
C 404.052 529.884 404.079 534.831 403.961 537.987
C 403.909 539.362 404.433 540.761 404.287 542.141
C 403.452 542.106 402.611 542.224 401.775 542.13
C 401.72 539.148 403.022 533.656 399.903 531.988
C 398.401 531.958 397.066 533.049 396.097 534.101
C 395.395 536.683 396.618 539.767 395.828 542.248
C 395.082 542.207 394.319 542.257 393.57 542.259
C 392.881 536.234 393.598 529.883 393.431 523.807 Z"
opacity="1" fill="rgb(22,64,84)" fill-rule="evenodd" />
<path d="
M 406.361 403.956
C 411.852 403.748 417.517 403.512 423.003 403.886
C 422.45 420.389 422.982 436.998 422.98 453.513
C 422.978 470.154 422.457 486.929 423.054 503.545
C 422.248 504.152 420.013 503.756 419.001 503.759
C 416.167 503.768 413.332 503.781 410.498 503.792
C 409.143 503.797 407.444 504.085 406.154 503.692
C 405.696 470.574 405.853 437.37 406.153 404.248
C 406.222 404.151 406.291 404.054 406.361 403.956 Z"
opacity="1" fill="rgb(23,73,90)" fill-rule="evenodd" />
<path d="
M 406.938 534.067
C 408.038 532.103 409.42 530.563 411.766 530.215
C 415.39 529.676 419.681 532.784 419.14 536.738
C 415.732 537.373 412.097 536.591 408.774 537.401
C 409.496 540.135 413.281 541.235 415.617 539.838
C 416.283 539.439 418.497 537.581 419.284 538.454
C 418.331 542.166 413.506 543.657 410.271 541.978
C 407.212 540.39 405.911 537.347 406.938 534.067 Z
M 408.838 534.61
C 408.757 535.085 408.715 534.867 408.942 535.268
C 410.965 535.422 412.965 535.233 414.984 535.283
C 415.488 535.295 416.581 535.515 416.918 535.044
C 416.847 534.29 416.072 533.769 415.515 533.337
C 412.948 531.345 410.784 532.559 408.838 534.61 Z"
opacity="1" fill="rgb(25,69,89)" fill-rule="evenodd" />
<path d="
M 428.439 534.067
C 430.151 530.306 435.008 528.773 438.53 531.24
C 438.977 532.007 438.909 532.916 438.816 533.776
C 438.023 533.908 437.409 533.015 436.826 532.605
C 435.924 531.971 434.201 532.039 433.204 532.408
C 430.105 533.554 429.681 538.651 432.671 540.2
C 435.214 541.517 436.804 539.322 439.148 539.181
C 439.355 542.604 434.592 543.205 432.175 542.435
C 428.603 541.296 427.508 537.374 428.439 534.067 Z"
opacity="1" fill="rgb(26,70,90)" fill-rule="evenodd" />
<path d="
M 440.95 535.606
C 441.195 534.395 441.401 533.364 442.194 532.369
C 446.608 526.831 454.917 532.132 453.349 538.445
C 451.047 545.531 440.029 543.001 440.95 535.606 Z
M 443.466 535.613
C 443.288 537.426 443.814 539.397 445.599 540.272
C 448.162 541.529 450.922 539.555 451.148 536.878
C 451.564 531.943 443.997 530.236 443.466 535.613 Z"
opacity="1" fill="rgb(19,63,83)" fill-rule="evenodd" />
<path d="
M 441.885 404.51
C 441.96 404.354 442.036 404.197 442.111 404.041
C 447.701 403.52 453.392 403.809 459.003 403.819
C 468.17 403.836 477.336 403.807 486.503 403.801
C 490.171 403.798 493.838 403.807 497.506 403.826
C 498.387 403.831 500.753 403.46 501.311 404.104
C 501.46 409.761 500.647 415.785 501.307 421.384
C 490.883 421.585 480.436 421.473 470.008 421.463
C 467.374 421.46 464.74 421.479 462.107 421.449
C 461.188 421.439 459.713 421.193 459.068 421.906
C 458.617 429.505 459.39 437.168 459.018 444.759
C 464.652 444.485 470.361 444.736 476.005 444.731
C 483.048 444.724 490.133 444.527 497.172 444.793
C 498.098 448.805 497.281 453.889 497.266 458.003
C 497.262 458.891 497.747 461.928 497.117 462.48
C 484.509 463.33 471.734 461.549 459.141 462.587
C 459.289 470.537 459.516 478.637 459.202 486.578
C 469.269 486.243 479.434 486.606 489.511 486.603
C 492.344 486.603 495.176 486.618 498.008 486.624
C 499.044 486.626 500.554 486.389 501.482 486.852
C 501.089 490.144 501.432 493.688 501.427 497.007
C 501.424 499.224 501.075 501.695 501.362 503.878
C 487.165 503.09 472.726 503.929 458.501 503.82
C 454.834 503.792 451.166 503.771 447.498 503.746
C 445.673 503.734 443.503 504.033 441.734 503.629
C 441.927 481.424 441.773 459.208 441.778 437.002
C 441.78 429.836 441.785 422.669 441.798 415.502
C 441.805 411.863 441.562 408.135 441.885 404.51 Z"
opacity="1" fill="rgb(22,73,90)" fill-rule="evenodd" />
<path d="
M 456.445 531.077
C 456.548 530.838 456.65 530.599 456.753 530.361
C 457.833 530.349 458.188 530.385 458.72 531.326
C 459.113 531.605 459.895 531.024 460.295 530.814
C 461.299 530.285 462.29 530.33 463.383 530.195
C 463.979 530.499 463.691 531.693 463.51 532.21
C 462.216 532.683 460.942 532.359 459.773 533.325
C 457.823 534.938 458.694 540.044 458.85 542.307
C 458.051 542.265 457.077 542.466 456.335 542.122
C 456.325 538.512 456.007 534.659 456.445 531.077 Z"
opacity="1" fill="rgb(22,69,86)" fill-rule="evenodd" />
<path d="
M 465.927 531.047
C 466.01 530.838 466.094 530.629 466.177 530.42
C 467.164 530.211 467.677 530.575 468.185 531.413
C 468.895 531.472 469.401 530.736 469.971 530.409
C 470.786 529.943 471.92 529.972 472.81 530.197
C 476.603 531.153 476.19 535.718 476.283 538.709
C 476.315 539.71 476.639 541.211 476.318 542.164
C 475.559 542.147 474.539 542.409 473.839 542.111
C 473.941 539.709 474.533 535.999 473.733 533.714
C 472.731 530.856 469.499 531.844 468.433 534.086
C 468.087 534.811 468.29 535.932 468.297 536.708
C 468.314 538.543 468.368 540.383 468.339 542.217
C 467.523 542.182 466.452 542.504 465.744 542.06
C 465.638 538.611 465.097 534.404 465.927 531.047 Z"
opacity="1" fill="rgb(12,63,79)" fill-rule="evenodd" />
<path d="
M 478.954 535.094
C 479.893 532.604 481.579 530.434 484.409 530.177
C 487.679 529.88 492.097 533.118 491.243 536.819
C 488.454 536.633 483.655 536.081 481.106 537.256
C 481.357 538.05 481.658 538.59 482.239 539.183
C 482.574 539.525 482.943 539.882 483.357 540.127
C 486.461 541.96 488.105 538.173 490.999 538.481
C 490.694 541.606 486.413 543.099 483.721 542.535
C 480.452 541.85 478.391 538.213 478.954 535.094 Z
M 481.316 534.569
C 481.293 534.725 481.269 534.881 481.246 535.038
C 481.814 535.39 482.783 535.206 483.444 535.189
C 484.77 535.155 487.738 535.709 488.926 535.054
C 488.882 534.409 488.397 533.978 487.982 533.516
C 485.643 530.91 483.31 532.684 481.316 534.569 Z"
opacity="1" fill="rgb(15,74,87)" fill-rule="evenodd" />
<path d="
M 493.851 530.361
C 495.765 530.442 495.037 530.812 496.028 531.98
C 497.601 531.049 498.447 529.446 500.452 530.441
C 500.762 531.155 501.032 531.588 500.887 532.375
C 499.202 532.432 498.041 532.411 496.667 533.549
C 496.138 534.373 496.318 535.356 496.306 536.307
C 496.282 538.312 496.232 540.365 496.366 542.363
C 495.711 542.399 494.602 542.569 494.212 541.875
C 493.856 541.24 493.988 539.721 493.95 538.976
C 493.822 536.411 492.978 532.788 493.851 530.361 Z"
opacity="1" fill="rgb(10,67,75)" fill-rule="evenodd" />

</svg>